<?xml version="1.0" standalone="no"?><!DOCTYPE svg PUBLIC "-//W3C//DTD SVG 1.1//EN" "http://www.w3.org/Graphics/SVG/1.1/DTD/svg11.dtd"><svg t="1646458602508" class="icon" viewBox="0 0 1024 1024" version="1.1" xmlns="http://www.w3.org/2000/svg" p-id="3451" xmlns:xlink="http://www.w3.org/1999/xlink" width="200" height="200"><defs><style type="text/css"></style></defs><path d="M900.461068 534.654487v23.15619a17.252468 17.252468 0 0 1-17.236085 17.299567l-34.409714 262.407474c-4.275745 32.920985-23.308749 56.728366-51.953989 56.728366h-22.382134c-12.027581 20.582143-34.158862 34.594013-59.642344 34.594014h-25.791671c-25.543891 0-47.614763-14.011871-59.642344-34.594014H395.050794c-12.027581 20.582143-34.161934 34.594013-59.642344 34.594014h-25.791671c-25.543891 0-47.614763-14.011871-59.642344-34.594014h-23.24834c-28.64524 0-47.366983-23.807382-51.89358-56.728366l-34.409714-262.407474c-9.485274-0.063481-17.233014-7.720095-17.233014-17.299567v-23.15619c0-9.544659 7.809173-17.296495 17.356904-17.296495h45.258803l128.273377-54.620187v-8.989713h-66.708177c-11.655911 0-21.080775-9.485274-21.080774-21.141184V302.380981c1.053578-10.634073 9.548755-19.687267 20.458252-19.687267h1.053578c34.104596-108.370071 139.002672-187.296271 263.187675-187.296271 124.242341 0 229.206969 78.986609 263.241941 187.297295 10.665813 0.063481 21.515926 9.671621 21.515926 21.236406v128.676788c0 11.655911-9.488345 21.141184-21.144256 21.141184h-66.584286v8.678452h0.742317l129.080199 54.931448h45.322284c9.609164-0.001024 17.297519 7.750812 17.297518 17.295471z" fill="#27323A" p-id="3452"></path><path d="M719.239509 305.603148c-12.709489-8.834083-27.403267-16.554178-43.523317-23.187931 10.291071 13.487641 16.182508 28.613499 16.182507 44.856417 0 29.635337-18.600925 55.613355-49.538643 74.523493h101.428128v-86.85824h-11.157279l-13.391396-9.333739zM365.850609 433.41373H656.436431v44.885085H365.850609z" fill="#79CCBF" p-id="3453"></path><path d="M660.156207 327.27061c0-40.484426-66.399987-73.405411-147.928904-73.405411-81.589326 0-147.925832 32.920985-147.925833 73.405411 0 41.043467 66.336506 74.399603 147.925833 74.399603 81.528917 0 147.928904-33.355112 147.928904-74.399603z" fill="#F4CE73" p-id="3454"></path><path d="M305.649223 262.978802c54.061145-27.277329 125.60718-44.173485 204.657271-44.173484 80.040187 0 152.328539 17.267826 206.577055 45.104196-39.678628-70.117715-116.804838-117.918825-205.895148-117.918825-88.720687-0.001024-165.472155 47.426368-205.339178 116.988113z" fill="#FFFFFF" p-id="3455"></path><path d="M382.033116 401.794103c-30.876286-18.909114-49.475163-44.888157-49.475162-74.523493 0-17.048715 6.383925-32.825764 17.731646-46.807942-18.166797 7.100645-34.784456 15.37671-48.795303 25.14048l-13.389349 9.332715h-9.858992v86.85824h103.78716z" fill="#79CCBF" p-id="3456"></path><path d="M246.689811 543.181404h530.271233l-77.871598-33.140097H324.559361zM835.238549 574.923897H188.410258l33.542483 256.083958c1.488729 10.662742 5.022158 15.468859 4.774378 15.623466h47.055721c12.275361 0 14.134737 12.893788 14.134737 12.893788 0 11.967172 9.73203 21.699202 21.699202 21.699202h25.791671c11.967172 0 21.699202-9.73203 21.699202-21.699202 0 0 4.278817-12.893788 15.871246-12.893788h279.8596c11.655911 0 14.506407 12.893788 14.506407 12.893788 0 11.967172 9.735102 21.699202 21.699202 21.699202h25.791671c11.967172 0 21.699202-9.73203 21.699202-21.699202 0 0 2.047771-12.893788 14.881149-12.893788h44.948566c1.237877-1.52047 4.027965-6.199626 5.205433-15.28456l33.668421-256.422864z" fill="#F4CE73" p-id="3457"></path><path d="M547.566705 327.769242c0 16.705713-15.810837 30.254787-35.339402 30.254787s-35.339402-13.548051-35.339402-30.254787c0-16.678068 15.810837-30.226119 35.339402-30.226119 19.528565 0.001024 35.339402 13.548051 35.339402 30.226119zM405.341866 299.371782c-14.134737 10.510183-18.103316 29.139776-8.865823 41.539028 9.237493 12.462732 28.210088 14.011871 42.408306 3.473019 14.134737-10.538852 18.039836-29.139776 8.802342-41.599437-9.23647-12.402323-28.210088-13.951461-42.344825-3.41261zM576.396244 302.784392c-9.237493 12.458637-5.268914 31.060585 8.865823 41.599437s33.108356 8.989713 42.344825-3.473019c9.237493-12.399251 5.329323-31.028845-8.805414-41.539028-14.135761-10.538852-33.105284-8.989713-42.405234 3.41261z" fill="#27323A" p-id="3458"></path></svg>